<?xml version="1.0" encoding="utf-8"?>
<!-- Generator: Adobe Illustrator 15.0.0, SVG Export Plug-In . SVG Version: 6.00 Build 0)  -->
<!DOCTYPE svg PUBLIC "-//W3C//DTD SVG 1.1//EN" "http://www.w3.org/Graphics/SVG/1.1/DTD/svg11.dtd">
<svg version="1.1" id="Calque_1" xmlns="http://www.w3.org/2000/svg" xmlns:xlink="http://www.w3.org/1999/xlink" x="0px" y="0px"
	 width="95.5px" height="96px" viewBox="25 22.5 95.5 96" enable-background="new 25 22.5 95.5 96" xml:space="preserve">
<g display="none">
	<g display="inline">
		<defs>
			<polygon id="SVGID_7_" points="162.667,146 41.766,148.379 24.667,24 162.667,24 			"/>
		</defs>
		<clipPath id="SVGID_1_">
			<use xlink:href="#SVGID_7_"  overflow="visible"/>
		</clipPath>
		<g transform="matrix(1 0 0 1 -5.876163e-008 -6.188591e-007)" clip-path="url(#SVGID_1_)">
			
				<image overflow="visible" enable-background="new    " width="1936" height="1296" xlink:href="525EEAA8.jpeg"  transform="matrix(0.096 0 0 0.096 5.1421 26.2437)">
			</image>
		</g>
	</g>
</g>
<polygon display="none" opacity="0.3" stroke="#FBB03B" stroke-width="10" stroke-miterlimit="10" enable-background="new    " points="
	164.404,149.682 41.952,149.682 24.431,27.226 164.404,27.226 "/>
<polygon display="none" fill="#FBB03B" stroke="#FBB03B" stroke-width="10" stroke-miterlimit="10" points="164.404,149.682 
	41.952,149.682 24.431,27.226 164.404,27.226 "/>
<g display="none">
	<g display="inline">
		<defs>
			<polygon id="SVGID_9_" points="145.667,146 24.667,146 24.427,26.989 160.578,9.947 			"/>
		</defs>
		<clipPath id="SVGID_2_">
			<use xlink:href="#SVGID_9_"  overflow="visible"/>
		</clipPath>
		<g transform="matrix(1 0 0 1 0 -2.404431e-007)" clip-path="url(#SVGID_2_)">
			
				<image overflow="visible" enable-background="new    " width="300" height="200" xlink:href="525EEAA8.jpeg"  transform="matrix(0.69 0 0 0.69 0 10.4541)">
			</image>
		</g>
	</g>
</g>
<polygon id="ombre_3_" display="none" opacity="0.3" enable-background="new    " points="146.879,149.439 24.427,149.439 
	24.427,26.989 164.409,9.468 "/>
<polygon display="none" fill="#FFCC33" stroke="#FFCC33" stroke-width="10" stroke-miterlimit="10" points="146.879,149.439 
	24.427,149.439 24.427,26.989 164.409,9.468 "/>
<polygon display="none" fill="none" stroke="#FFCC33" stroke-width="10" stroke-miterlimit="10" points="146.879,149.439 
	24.427,149.439 24.427,26.989 164.409,9.468 "/>
<polygon display="none" fill="#FFFFFF" stroke="#33C3CC" stroke-width="10" stroke-miterlimit="10" points="146.879,149.439 
	24.427,149.439 24.427,26.989 164.409,9.468 "/>
<g display="none">
	<g display="inline">
		<defs>
			<polygon id="SVGID_11_" points="55.887,11.104 183.667,9 179.667,114 38.667,131 			"/>
		</defs>
		<clipPath id="SVGID_3_">
			<use xlink:href="#SVGID_11_"  overflow="visible"/>
		</clipPath>
		<g transform="matrix(1 0 0 1 -7.330382e-007 0)" clip-path="url(#SVGID_3_)">
			
				<image overflow="visible" enable-background="new    " width="587" height="543" xlink:href="525EEAA8.jpeg"  transform="matrix(0.298 0 0 0.2972 38.2285 0)">
			</image>
		</g>
	</g>
</g>
<polygon id="ombre_2_" display="none" opacity="0.3" enable-background="new    " points="174.466,110.167 44.292,127.854 
	60.329,11.03 174.466,12.667 "/>
<polygon display="none" fill="none" stroke="#99CC33" stroke-width="10" stroke-miterlimit="10" points="178.654,113.826 
	38.681,131.348 56.202,8.903 178.654,8.903 "/>
<polygon id="facebook_1_" fill="#3B5998" stroke="#3B5998" stroke-width="10" stroke-miterlimit="10" points="113.916,111.471 
	31.872,99.74 31.872,29.436 113.916,29.436 "/>
<path id="F_blanc_4_" fill="#FFFFFF" d="M104.18,40.033l-6.72-0.011c-7.549,0-12.427,5.005-12.427,12.75v5.879h-6.756
	c-0.581,0-1.055,0.471-1.055,1.055v8.519c0,0.581,0.474,1.055,1.055,1.055h6.756v21.492c0,0.582,0.473,1.056,1.058,1.056h8.812
	c0.584,0,1.057-0.474,1.057-1.056v-21.49h7.898c0.584,0,1.055-0.474,1.055-1.055l0.006-8.519c0-0.279-0.113-0.547-0.311-0.747
	c-0.197-0.197-0.467-0.308-0.748-0.308h-7.9v-4.983c0-2.396,0.572-3.611,3.689-3.611l4.526-0.002c0.584,0,1.056-0.474,1.056-1.056
	v-7.907C105.23,40.506,104.759,40.036,104.18,40.033L104.18,40.033z"/>
<path id="F_blanc_3_" display="none" fill="#3B5998" d="M87.954,35.818l-7.813-0.012c-8.777,0-14.449,5.82-14.449,14.825v6.836
	h-7.856c-0.676,0-1.227,0.547-1.227,1.227V68.6c0,0.676,0.551,1.227,1.227,1.227h7.856v24.991c0,0.676,0.55,1.227,1.23,1.227h10.245
	c0.679,0,1.229-0.551,1.229-1.227V69.827h9.184c0.68,0,1.228-0.551,1.228-1.227l0.006-9.906c0-0.324-0.132-0.636-0.361-0.869
	c-0.23-0.229-0.542-0.358-0.869-0.358h-9.188v-5.795c0-2.785,0.665-4.199,4.291-4.199l5.263-0.003c0.68,0,1.227-0.551,1.227-1.227
	v-9.195C89.177,36.368,88.629,35.821,87.954,35.818L87.954,35.818z"/>
<polygon display="none" fill="none" stroke="#FFCC33" stroke-width="10" stroke-miterlimit="10" points="134.12,131.674 
	11.667,114.164 11.667,9.232 134.12,9.232 "/>
</svg>
